<svg width="1196" height="768" viewBox="0 0 1196 768" fill="none" xmlns="http://www.w3.org/2000/svg">
<circle r="4.29854" transform="matrix(1 -8.74228e-08 -8.74228e-08 -1 1177.39 59.1136)" fill="#C5FF8E"/>
<circle r="7.24478" transform="matrix(1 -8.74228e-08 -8.74228e-08 -1 1177.4 59.1107)" stroke="#C5FF8E"/>
<path d="M1177.4 70.7969L1177.4 47.4295" stroke="#C5FF8E"/>
<path d="M1165.71 59.1133L1189.08 59.1133" stroke="#C5FF8E"/>
<circle r="4.29854" transform="matrix(1 -8.74228e-08 -8.74228e-08 -1 1137.93 18.9456)" fill="#C5FF8E"/>
<circle r="7.24478" transform="matrix(1 -8.74228e-08 -8.74228e-08 -1 1137.93 18.9427)" stroke="#C5FF8E"/>
<path d="M1137.93 30.6289L1137.93 7.26152" stroke="#C5FF8E"/>
<path d="M1126.24 18.9453L1149.61 18.9453" stroke="#C5FF8E"/>
<path d="M1164 37.8906L1196 37.8906" stroke="#C5FF8E"/>
<path d="M1158.79 32L1158.79 1.04122e-06" stroke="#C5FF8E"/>
<circle cx="18.6058" cy="59.1136" r="4.29854" transform="rotate(-180 18.6058 59.1136)" fill="#C5FF8E"/>
<circle cx="18.6068" cy="59.1107" r="7.24478" transform="rotate(-180 18.6068 59.1107)" stroke="#C5FF8E"/>
<path d="M18.6035 70.7969L18.6035 47.4295" stroke="#C5FF8E"/>
<path d="M30.2891 59.1133L6.92168 59.1133" stroke="#C5FF8E"/>
<circle cx="58.0745" cy="18.9456" r="4.29854" transform="rotate(-180 58.0745 18.9456)" fill="#C5FF8E"/>
<circle cx="58.0755" cy="18.9427" r="7.24478" transform="rotate(-180 58.0755 18.9427)" stroke="#C5FF8E"/>
<path d="M58.0723 30.6289L58.0723 7.26152" stroke="#C5FF8E"/>
<path d="M69.7578 18.9453L46.3904 18.9453" stroke="#C5FF8E"/>
<path d="M32 37.8906L1.04122e-06 37.8906" stroke="#C5FF8E"/>
<path d="M37.2109 32L37.2109 1.04122e-06" stroke="#C5FF8E"/>
<path d="M6.69466 18.7192C6.85466 20.3192 7.46266 21.4392 8.51866 22.0792C9.57466 22.7192 10.8387 23.0392 12.3107 23.0392C12.8227 23.0392 13.3987 23.0072 14.0387 22.9432C14.7107 22.8472 15.3347 22.6872 15.9107 22.4632C16.4867 22.2392 16.9507 21.9192 17.3027 21.5032C17.6867 21.0552 17.8627 20.4792 17.8307 19.7752C17.7987 19.0712 17.5427 18.4952 17.0627 18.0472C16.5827 17.5992 15.9587 17.2472 15.1907 16.9912C14.4547 16.7032 13.6067 16.4632 12.6467 16.2712C11.6867 16.0792 10.7107 15.8712 9.71866 15.6472C8.69466 15.4232 7.70266 15.1512 6.74266 14.8312C5.81466 14.5112 4.96666 14.0792 4.19866 13.5352C3.46266 12.9912 2.87066 12.3032 2.42266 11.4712C1.97466 10.6072 1.75066 9.55122 1.75066 8.30322C1.75066 6.95922 2.07066 5.83922 2.71066 4.94322C3.38266 4.01522 4.21466 3.27922 5.20666 2.73522C6.23066 2.15922 7.35066 1.75922 8.56666 1.53522C9.81466 1.31122 10.9987 1.19922 12.1187 1.19922C13.3987 1.19922 14.6147 1.34322 15.7667 1.63122C16.9507 1.88722 18.0067 2.31922 18.9347 2.92722C19.8947 3.53522 20.6787 4.33522 21.2867 5.32722C21.9267 6.28722 22.3267 7.45522 22.4867 8.83122H16.7747C16.5187 7.51922 15.9107 6.63922 14.9507 6.19122C14.0227 5.74322 12.9507 5.51922 11.7347 5.51922C11.3507 5.51922 10.8867 5.55122 10.3427 5.61522C9.83066 5.67922 9.33466 5.80722 8.85466 5.99922C8.40666 6.15922 8.02266 6.41522 7.70266 6.76722C7.38266 7.08722 7.22266 7.51922 7.22266 8.06322C7.22266 8.73522 7.44666 9.27922 7.89466 9.69522C8.37466 10.1112 8.98266 10.4632 9.71866 10.7512C10.4867 11.0072 11.3507 11.2312 12.3107 11.4232C13.2707 11.6152 14.2627 11.8232 15.2867 12.0472C16.2787 12.2712 17.2547 12.5432 18.2147 12.8632C19.1747 13.1832 20.0227 13.6152 20.7587 14.1592C21.5267 14.7032 22.1347 15.3912 22.5827 16.2232C23.0627 17.0552 23.3027 18.0792 23.3027 19.2952C23.3027 20.7672 22.9667 22.0152 22.2947 23.0392C21.6227 24.0632 20.7427 24.8952 19.6547 25.5352C18.5987 26.1752 17.4147 26.6392 16.1027 26.9272C14.7907 27.2152 13.4947 27.3592 12.2147 27.3592C10.6467 27.3592 9.19066 27.1832 7.84666 26.8312C6.53466 26.4792 5.38266 25.9512 4.39066 25.2472C3.43066 24.5112 2.66266 23.6152 2.08666 22.5592C1.54266 21.4712 1.25466 20.1912 1.22266 18.7192H6.69466Z" fill="#C5FF8E"/>
<circle r="4.29854" transform="matrix(-1 8.74228e-08 8.74228e-08 1 18.6058 708.304)" fill="#C5FF8E"/>
<circle r="7.24478" transform="matrix(-1 8.74228e-08 8.74228e-08 1 18.6068 708.307)" stroke="#C5FF8E"/>
<path d="M18.6035 696.621L18.6035 719.988" stroke="#C5FF8E"/>
<path d="M30.2891 708.305L6.92168 708.305" stroke="#C5FF8E"/>
<circle r="4.29854" transform="matrix(-1 8.74228e-08 8.74228e-08 1 58.0745 748.472)" fill="#C5FF8E"/>
<circle r="7.24478" transform="matrix(-1 8.74228e-08 8.74228e-08 1 58.0755 748.475)" stroke="#C5FF8E"/>
<path d="M58.0723 736.789L58.0723 760.156" stroke="#C5FF8E"/>
<path d="M69.7578 748.473L46.3904 748.473" stroke="#C5FF8E"/>
<path d="M32 729.527H1.04122e-06" stroke="#C5FF8E"/>
<path d="M37.2109 735.418L37.2109 767.418" stroke="#C5FF8E"/>
<circle cx="1177.39" cy="708.304" r="4.29854" fill="#C5FF8E"/>
<circle cx="1177.4" cy="708.307" r="7.24478" stroke="#C5FF8E"/>
<path d="M1177.4 696.621L1177.4 719.988" stroke="#C5FF8E"/>
<path d="M1165.71 708.305L1189.08 708.305" stroke="#C5FF8E"/>
<circle cx="1137.93" cy="748.472" r="4.29854" fill="#C5FF8E"/>
<circle cx="1137.93" cy="748.475" r="7.24478" stroke="#C5FF8E"/>
<path d="M1137.93 736.789L1137.93 760.156" stroke="#C5FF8E"/>
<path d="M1126.24 748.473L1149.61 748.473" stroke="#C5FF8E"/>
<path d="M1164 729.527H1196" stroke="#C5FF8E"/>
<path d="M1158.79 735.418L1158.79 767.418" stroke="#C5FF8E"/>
<path d="M1172.72 754.706C1172.88 756.306 1173.49 757.426 1174.54 758.066C1175.6 758.706 1176.86 759.026 1178.33 759.026C1178.85 759.026 1179.42 758.994 1180.06 758.93C1180.73 758.834 1181.36 758.674 1181.93 758.45C1182.51 758.226 1182.97 757.906 1183.33 757.49C1183.71 757.042 1183.89 756.466 1183.85 755.762C1183.82 755.058 1183.57 754.482 1183.09 754.034C1182.61 753.586 1181.98 753.234 1181.21 752.978C1180.48 752.69 1179.63 752.45 1178.67 752.258C1177.71 752.066 1176.73 751.858 1175.74 751.634C1174.72 751.41 1173.73 751.138 1172.77 750.818C1171.84 750.498 1170.99 750.066 1170.22 749.522C1169.49 748.978 1168.89 748.29 1168.45 747.458C1168 746.594 1167.77 745.538 1167.77 744.29C1167.77 742.946 1168.09 741.826 1168.73 740.93C1169.41 740.002 1170.24 739.266 1171.23 738.722C1172.25 738.146 1173.37 737.746 1174.59 737.522C1175.84 737.298 1177.02 737.186 1178.14 737.186C1179.42 737.186 1180.64 737.33 1181.79 737.618C1182.97 737.874 1184.03 738.306 1184.96 738.914C1185.92 739.522 1186.7 740.322 1187.31 741.314C1187.95 742.274 1188.35 743.442 1188.51 744.818H1182.8C1182.54 743.506 1181.93 742.626 1180.97 742.178C1180.05 741.73 1178.97 741.506 1177.76 741.506C1177.37 741.506 1176.91 741.538 1176.37 741.602C1175.85 741.666 1175.36 741.794 1174.88 741.986C1174.43 742.146 1174.05 742.402 1173.73 742.754C1173.41 743.074 1173.25 743.506 1173.25 744.05C1173.25 744.722 1173.47 745.266 1173.92 745.682C1174.4 746.098 1175.01 746.45 1175.74 746.738C1176.51 746.994 1177.37 747.218 1178.33 747.41C1179.29 747.602 1180.29 747.81 1181.31 748.034C1182.3 748.258 1183.28 748.53 1184.24 748.85C1185.2 749.17 1186.05 749.602 1186.78 750.146C1187.55 750.69 1188.16 751.378 1188.61 752.21C1189.09 753.042 1189.33 754.066 1189.33 755.282C1189.33 756.754 1188.99 758.002 1188.32 759.026C1187.65 760.05 1186.77 760.882 1185.68 761.522C1184.62 762.162 1183.44 762.626 1182.13 762.914C1180.81 763.202 1179.52 763.346 1178.24 763.346C1176.67 763.346 1175.21 763.17 1173.87 762.818C1172.56 762.466 1171.41 761.938 1170.41 761.234C1169.45 760.498 1168.69 759.602 1168.11 758.546C1167.57 757.458 1167.28 756.178 1167.25 754.706H1172.72Z" fill="#C5FF8E"/>
</svg>
